<?xml version="1.0" standalone="no"?>
<!DOCTYPE svg PUBLIC "-//W3C//DTD SVG 20010904//EN"
 "http://www.w3.org/TR/2001/REC-SVG-20010904/DTD/svg10.dtd">
<svg version="1.0" xmlns="http://www.w3.org/2000/svg"
 width="810.000000pt" height="424.000000pt" viewBox="0 0 810.000000 424.000000"
 preserveAspectRatio="xMidYMid meet">

<g transform="translate(0.000000,424.000000) scale(0.100000,-0.100000)"
fill="#000000" stroke="none">
<path d="M7227 4234 c-1 -2 -14 -5 -27 -8 -133 -26 -318 -66 -330 -70 -8 -3
-31 -7 -51 -10 -20 -3 -48 -10 -63 -15 -14 -6 -26 -9 -26 -6 0 2 -25 -5 -55
-15 -30 -10 -55 -17 -55 -15 0 7 -658 -218 -715 -245 -11 -5 -49 -21 -85 -36
-262 -107 -570 -274 -815 -441 -142 -98 -187 -135 -318 -262 l-108 -106 -152
-1 c-133 -1 -369 -10 -492 -19 -137 -10 -235 -18 -345 -29 -36 -4 -83 -9 -105
-11 -22 -2 -62 -7 -90 -11 -27 -4 -59 -8 -70 -9 -33 -3 -139 -17 -160 -21 -18
-4 -34 -7 -115 -19 -14 -2 -54 -9 -90 -14 -36 -6 -83 -13 -105 -16 -46 -7 -81
-13 -110 -19 -11 -2 -40 -7 -65 -11 -25 -4 -54 -9 -65 -11 -11 -2 -31 -6 -45
-9 -14 -3 -36 -7 -50 -10 -14 -3 -36 -7 -50 -10 -35 -7 -58 -12 -115 -25 -27
-6 -58 -13 -68 -15 -9 -2 -45 -11 -80 -20 -34 -9 -70 -18 -80 -20 -9 -2 -50
-14 -90 -26 -212 -65 -337 -108 -472 -162 -132 -52 -173 -69 -260 -107 -83
-36 -344 -165 -396 -197 -35 -21 -82 -47 -103 -58 -67 -34 -106 -77 -106 -117
0 -57 58 -111 110 -103 8 2 71 35 140 75 103 59 416 218 495 251 11 4 41 17
68 29 103 45 639 223 712 236 14 2 36 9 51 14 15 6 47 15 73 21 25 6 53 12 61
14 52 12 311 65 340 69 56 9 93 16 120 22 13 3 38 7 55 10 16 2 39 5 50 8 11
2 40 7 65 11 25 4 52 9 60 10 26 5 93 14 140 20 25 4 56 8 70 10 132 20 138
21 233 30 40 4 86 9 102 11 33 3 148 12 235 19 291 23 1078 22 1250 0 19 -3
64 -7 100 -10 36 -4 76 -8 90 -10 14 -3 50 -7 80 -10 50 -4 108 -12 151 -20 9
-2 40 -6 69 -10 29 -4 60 -8 69 -10 9 -1 36 -6 61 -10 25 -4 52 -9 60 -10 8
-1 35 -6 60 -10 25 -4 54 -9 65 -11 11 -2 34 -6 50 -9 68 -12 145 -28 225 -47
47 -11 94 -22 105 -24 57 -11 116 -27 119 -33 3 -4 -205 -49 -461 -100 -256
-51 -466 -91 -467 -89 -61 99 -124 154 -213 188 -150 56 -321 23 -431 -83 -55
-54 -98 -129 -113 -198 -6 -30 -13 -56 -14 -57 -3 -4 -66 -19 -113 -28 -75
-14 -108 -87 -71 -156 11 -21 65 -48 83 -42 6 1 27 5 46 8 19 3 47 8 62 11 21
4 30 0 39 -17 23 -46 92 -128 122 -147 l32 -21 -30 -1 c-33 -2 -43 -3 -160
-13 -44 -4 -93 -8 -110 -10 -16 -2 -61 -6 -100 -10 -38 -4 -77 -9 -85 -11 -8
-2 -42 -6 -75 -10 -87 -8 -167 -19 -225 -30 -32 -6 -73 -12 -130 -20 -25 -3
-52 -8 -61 -11 -9 -2 -32 -7 -50 -9 -19 -3 -45 -7 -59 -10 -14 -3 -38 -8 -55
-11 -37 -6 -254 -50 -290 -58 -5 -1 -37 -9 -70 -16 -33 -8 -62 -14 -65 -15 -3
-1 -18 -5 -35 -9 -16 -4 -66 -16 -110 -27 -44 -12 -89 -22 -99 -25 -11 -2 -40
-10 -65 -18 -25 -8 -91 -26 -146 -42 -55 -15 -145 -42 -200 -61 -55 -18 -113
-36 -129 -39 -15 -2 -40 -11 -55 -18 -14 -7 -84 -32 -156 -56 -71 -23 -134
-46 -140 -50 -5 -4 -35 -15 -65 -25 -30 -10 -59 -21 -65 -25 -5 -4 -21 -11
-35 -15 -14 -4 -38 -13 -55 -20 -16 -8 -75 -33 -130 -56 -55 -23 -127 -54
-160 -69 -33 -15 -82 -38 -110 -50 -396 -179 -953 -501 -1316 -762 -232 -167
-372 -280 -250 -204 22 14 43 26 46 26 2 0 26 13 52 29 107 65 540 286 708
361 28 13 84 38 125 57 98 44 106 48 165 73 28 12 59 25 70 30 11 5 49 21 85
35 36 15 79 32 95 40 17 7 41 16 55 20 14 4 30 11 35 15 6 4 28 13 50 20 22 7
54 18 70 26 79 35 655 230 870 294 61 18 131 39 157 47 25 8 57 16 71 18 13 3
43 11 66 19 22 9 41 13 41 11 0 -2 25 5 55 15 30 10 55 17 55 15 0 -2 18 2 40
10 22 8 40 12 40 10 0 -2 18 2 40 10 22 8 40 12 40 9 0 -2 8 0 18 5 9 5 33 12
52 15 19 3 60 12 90 20 30 8 82 20 115 27 33 7 62 13 65 14 3 1 23 5 45 10 22
4 47 9 55 11 127 26 263 54 291 58 20 3 42 8 50 10 8 3 32 8 54 11 36 5 68 10
115 19 57 11 89 16 120 21 19 2 44 6 55 9 11 2 43 7 70 10 28 4 57 9 65 11 8
2 40 6 71 10 31 3 65 7 75 9 11 2 42 7 69 10 28 4 61 9 75 11 22 3 60 8 170
20 14 2 52 6 84 9 33 3 71 8 85 11 14 2 58 7 96 10 39 3 93 8 121 11 28 2 75
6 105 8 30 3 83 7 119 10 58 5 194 14 335 21 444 25 1094 25 1545 0 155 -8
290 -16 330 -20 25 -2 79 -7 120 -10 41 -4 91 -8 110 -10 19 -2 71 -6 115 -10
44 -4 83 -9 87 -11 3 -2 9 0 13 6 3 5 0 10 -7 11 -17 1 -27 3 -133 29 -49 12
-97 23 -105 25 -48 11 -219 47 -240 51 -14 2 -59 11 -100 19 -89 17 -123 23
-170 31 -19 3 -46 7 -60 10 -55 9 -77 13 -123 19 -27 4 -57 8 -66 10 -10 2
-42 6 -71 10 -29 4 -61 8 -72 10 -10 2 -46 7 -81 10 -34 4 -73 8 -87 10 -70 9
-318 31 -455 41 -144 10 -416 18 -632 18 -139 1 -253 4 -253 7 0 3 9 14 20 24
53 48 113 169 123 247 3 27 12 42 25 44 4 0 21 3 37 7 17 4 44 9 60 12 17 3
41 7 55 10 14 3 36 7 50 10 14 3 36 7 50 10 14 3 36 7 50 10 26 5 58 11 98 19
13 3 31 7 40 10 9 3 33 7 52 10 19 3 46 8 60 11 14 3 36 7 50 10 25 5 50 10
100 20 14 3 175 36 359 73 302 61 337 70 362 94 49 49 26 130 -47 160 -37 15
-135 45 -172 53 -9 2 -44 11 -77 19 -33 9 -71 19 -85 21 -14 3 -36 7 -50 10
-14 3 -36 7 -50 10 -14 3 -36 7 -50 10 -14 3 -41 8 -60 11 -19 3 -48 9 -65 14
-28 8 -97 22 -170 35 -16 3 -41 7 -55 10 -54 11 -67 13 -110 20 -25 4 -52 9
-60 10 -8 1 -35 6 -60 10 -25 4 -54 9 -65 11 -11 3 -38 7 -60 10 -22 3 -62 9
-90 14 -64 12 -96 17 -170 25 -33 4 -70 8 -83 10 -29 4 -125 14 -182 20 -25 3
-83 7 -130 11 -99 6 -130 25 -130 80 0 52 40 85 305 253 158 100 281 166 495
263 96 43 92 42 235 101 88 37 465 168 465 162 0 -2 45 11 100 30 55 19 100
32 100 30 0 -2 25 5 55 15 30 10 55 17 55 15 0 -3 12 0 27 6 15 6 59 17 98 25
38 9 79 18 90 20 11 2 91 19 178 38 184 38 202 49 202 122 0 38 -5 50 -29 70
-23 20 -38 24 -77 23 -27 -2 -50 -4 -52 -5z m-1953 -1769 c86 -41 165 -155
170 -244 4 -75 2 -78 -59 -76 -150 6 -272 154 -250 304 l7 43 48 -5 c27 -3 65
-13 84 -22z m-196 -45 c65 -116 4 -294 -121 -354 -51 -24 -62 -20 -83 26 -38
85 -11 221 61 305 33 38 90 75 109 70 4 -2 20 -23 34 -47z m255 -309 c23 -11
50 -26 60 -35 17 -13 17 -17 4 -43 -59 -112 -258 -165 -372 -99 -24 15 -47 31
-50 36 -9 14 19 61 62 102 66 64 204 82 296 39z"/>
<path d="M4567 2694 c-32 -6 -60 -14 -63 -16 -2 -3 -24 -63 -49 -134 -24 -71
-44 -122 -45 -114 -1 8 -3 24 -6 35 -2 11 -6 40 -9 65 -3 25 -8 54 -10 65 -2
11 -4 28 -4 38 -1 20 -20 21 -91 6 -56 -12 -54 -6 -35 -99 3 -14 7 -35 9 -48
3 -13 7 -31 10 -40 3 -9 7 -33 10 -52 3 -19 8 -46 11 -60 3 -14 7 -36 10 -50
3 -14 8 -38 11 -55 10 -46 8 -107 -11 -293 l-6 -53 28 6 c15 3 42 8 58 11 17
3 33 8 37 12 7 8 15 62 23 167 10 114 2 88 140 479 25 72 44 133 43 136 -2 3
-29 1 -61 -6z"/>
<path d="M3993 2588 c-99 -37 -117 -76 -138 -303 -5 -64 -16 -171 -20 -210 -2
-16 -7 -67 -10 -113 -7 -82 -7 -82 23 -110 36 -34 79 -38 164 -16 117 30 123
37 133 150 3 33 8 79 11 104 2 25 7 72 10 105 3 33 7 70 9 83 4 21 1 23 -28
18 -52 -9 -91 -17 -93 -19 -2 -2 -9 -61 -19 -152 -8 -76 -15 -128 -21 -147 -5
-18 -38 -33 -52 -24 -11 6 -5 122 13 271 2 17 6 57 10 90 14 129 21 145 60
145 12 0 22 6 22 13 1 26 15 122 20 129 7 13 -45 5 -94 -14z"/>
<path d="M3610 2515 c-82 -28 -122 -103 -135 -254 -9 -104 -14 -160 -20 -206
-2 -22 -7 -71 -11 -110 -3 -38 -7 -85 -9 -103 -5 -56 50 -102 115 -97 105 9
184 39 195 76 7 20 9 34 19 139 8 80 16 158 22 219 3 31 2 51 -4 47 -7 -4 -33
-10 -89 -20 -26 -4 -28 -11 -38 -101 -13 -130 -16 -152 -21 -180 -5 -31 -30
-58 -49 -52 -11 4 -13 107 -2 207 4 36 9 92 12 125 3 33 8 69 10 80 2 11 4 30
4 43 1 12 10 31 22 43 16 16 23 18 35 8 11 -9 14 -7 15 12 0 13 2 32 4 41 2 9
6 35 9 58 5 39 5 40 -23 38 -16 -1 -43 -7 -61 -13z"/>
<path d="M3373 2456 c-28 -6 -54 -13 -57 -16 -3 -3 -8 -37 -11 -75 -7 -78 -10
-109 -21 -210 -4 -38 -8 -83 -9 -100 -18 -231 -24 -255 -68 -255 -19 0 -19 4
-13 83 4 45 9 98 11 117 2 19 6 69 10 110 4 41 8 89 10 105 2 17 6 62 10 100
3 39 8 80 10 93 4 25 8 25 -69 9 -66 -14 -61 -5 -71 -125 -3 -40 -8 -90 -10
-110 -2 -20 -7 -68 -10 -107 -4 -38 -9 -86 -11 -105 -2 -19 -6 -87 -10 -152
l-7 -116 28 -27 c25 -26 31 -27 90 -22 36 3 81 15 102 26 82 41 98 81 118 296
11 112 14 150 20 205 23 221 27 290 18 289 -4 -1 -31 -6 -60 -13z"/>
<path d="M2897 2364 c-1 -2 -16 -5 -32 -8 -17 -3 -43 -9 -60 -12 -16 -3 -36
-7 -44 -8 -15 -3 -17 -11 -25 -93 -3 -29 -2 -53 2 -53 4 1 34 6 67 13 33 7 71
13 85 12 24 0 25 -3 25 -57 0 -38 -6 -63 -16 -73 -8 -8 -51 -22 -97 -31 -56
-12 -83 -22 -86 -33 -3 -9 -8 -54 -11 -101 -4 -47 -8 -96 -11 -110 -2 -14 -6
-54 -9 -90 -3 -36 -8 -84 -10 -107 -4 -32 -2 -43 8 -43 21 0 203 39 229 49 71
27 108 123 113 295 1 51 -2 62 -25 84 l-26 26 27 29 c15 16 30 46 34 66 4 20
9 47 12 61 2 14 5 51 6 82 2 48 -2 61 -23 83 -21 22 -32 26 -77 24 -29 -1 -54
-4 -56 -5z m-11 -447 c13 -7 8 -105 -7 -144 -14 -39 -76 -53 -65 -15 3 10 8
48 12 87 7 80 21 97 60 72z"/>
<path d="M2225 2243 c-105 -21 -162 -74 -179 -168 -3 -16 -8 -59 -11 -95 -3
-36 -8 -87 -11 -115 -3 -27 -7 -68 -9 -90 -2 -22 -7 -71 -10 -110 -19 -185 -2
-228 90 -224 57 2 138 29 167 56 40 36 53 76 64 193 3 36 7 75 9 88 4 26 -13
28 -85 9 -48 -13 -45 -7 -50 -107 -3 -54 -23 -90 -50 -90 -27 0 -27 -15 -5
210 3 26 16 156 20 200 2 14 3 35 4 47 1 27 28 55 49 51 18 -4 23 -40 12 -100
l-8 -40 46 7 c77 11 92 21 93 57 1 18 3 64 4 101 3 58 0 72 -19 94 -23 26 -69
36 -121 26z"/>
<path d="M1868 2155 c-1 -1 -21 -5 -43 -9 -22 -3 -53 -8 -70 -12 -16 -3 -36
-7 -43 -8 -30 -5 -30 -6 -47 -201 -3 -33 -8 -85 -11 -115 -9 -77 -11 -103 -19
-199 l-7 -84 49 8 c65 10 83 21 84 53 1 15 2 38 4 52 4 46 16 184 21 250 8
102 13 120 37 116 19 -3 38 -17 33 -24 -2 -4 -7 -47 -10 -97 -4 -49 -9 -106
-11 -125 -2 -19 -6 -65 -9 -103 -7 -70 -18 -111 -34 -121 -6 -3 -43 -13 -83
-21 -41 -9 -77 -19 -80 -23 -4 -4 -10 -35 -13 -69 -7 -72 -9 -71 86 -52 87 17
152 40 177 63 31 27 61 94 66 148 5 39 7 63 20 195 27 276 27 326 -1 354 -18
17 -85 35 -96 24z"/>
<path d="M1429 2078 c-92 -40 -129 -107 -133 -239 -3 -88 23 -149 83 -197 70
-56 90 -101 70 -159 -11 -35 -43 -50 -114 -52 -116 -3 -118 -5 -130 -105 l-6
-48 68 7 c37 4 82 9 98 10 48 5 140 43 162 68 45 49 70 192 50 287 -8 37 -21
56 -80 112 -67 64 -71 70 -71 113 0 50 22 82 49 71 13 -4 16 -16 14 -48 -3
-38 -1 -43 16 -42 42 3 90 15 100 25 5 5 11 43 12 85 1 65 -1 78 -21 101 -31
35 -103 40 -167 11z"/>
</g>
</svg>
