<?xml version="1.0" encoding="UTF-8"?><svg id="CMU" xmlns="http://www.w3.org/2000/svg" viewBox="0 0 38.1 12.49"><defs><style>.cls-1{fill:#fff;}</style></defs><path class="cls-1" d="M9.52,.36h-.42c-.02,.36-.2,.51-.56,.51-.71,0-1.75-.86-2.97-.86C2.1,0,0,3.42,0,6.44s2,6.03,5.35,6.03c2.03,0,2.8-.97,3.34-.97,.36,0,.42,.31,.42,.69h.46v-4.15h-.46l-.1,.58c-.24,1.37-1.3,3.4-3.49,3.4-1.93,0-2.68-1.67-2.68-5.79C2.85,1.91,3.86,.46,5.57,.46c1.93,0,3.26,2.17,3.53,3.89h.42V.36Z"/><path class="cls-1" d="M9.52,.36h-.42c-.02,.36-.2,.51-.56,.51-.71,0-1.75-.86-2.97-.86C2.1,0,0,3.42,0,6.44s2,6.03,5.35,6.03c2.03,0,2.8-.97,3.34-.97,.36,0,.42,.31,.42,.69h.46v-4.15h-.46l-.1,.58c-.24,1.37-1.3,3.4-3.49,3.4-1.93,0-2.68-1.67-2.68-5.79C2.85,1.91,3.86,.46,5.57,.46c1.93,0,3.26,2.17,3.53,3.89h.42V.36Z"/><path class="cls-1" d="M23.98,.92V.45s-3.81,0-3.81,0l-2.77,7.92L14.71,.44h-4.19v.48h1.13V10.47c0,.72-.18,1.28-1.13,1.28v.46h2.89v-.46h-.05c-.9,0-1.25-.07-1.25-1.43V.84h.03l3.99,11.36h.45L20.47,1.04h.03V11.74h-1.11v.46h4.59v-.46h-1.09V.92h1.09Z"/><path class="cls-1" d="M24.78,.9h1.17v7.42c0,2.59,1.79,4.16,4.51,4.16,3.08,0,4.41-1.62,4.41-4.08V2.06c0-.97,.27-1.16,.87-1.16h.34V.45h-2.94v.45h.21c.85,0,.97,.26,.97,1.23v6.45c0,2.27-1.41,3.31-2.84,3.31-2.44,0-2.92-1.64-3.07-3.78V.9h1.1V.45h-4.73v.45Z"/><path class="cls-1" d="M37.18,1.1h-.11V.55h-.18v-.09h.48v.09h-.19v.54Zm.53,0l-.18-.49h0v.11s0,.38,0,.38h-.1V.46h.16l.17,.49,.18-.49h.16v.64h-.11v-.49s0,0,0,0l-.19,.49h-.09Z"/></svg>