<?xml version="1.0" encoding="UTF-8"?>
<!DOCTYPE svg PUBLIC "-//W3C//DTD SVG 1.1//EN" "http://www.w3.org/Graphics/SVG/1.1/DTD/svg11.dtd">
<svg xmlns="http://www.w3.org/2000/svg" version="1.1" width="1080px" height="564px" style="shape-rendering:geometricPrecision; text-rendering:geometricPrecision; image-rendering:optimizeQuality; fill-rule:evenodd; clip-rule:evenodd" xmlns:xlink="http://www.w3.org/1999/xlink">
<g><path style="opacity:0.971" fill="#eff0f2" d="M 965.5,-0.5 C 969.5,-0.5 973.5,-0.5 977.5,-0.5C 986.923,6.5973 987.589,14.4306 979.5,23C 913.387,35.926 849.054,54.926 786.5,80C 752.312,94.7571 719.645,112.09 688.5,132C 680.031,137.323 672.198,143.49 665,150.5C 661.962,158.399 664.462,163.565 672.5,166C 700.293,167.829 727.96,170.829 755.5,175C 800.056,182.148 844.389,190.482 888.5,200C 903.095,203.532 917.428,207.866 931.5,213C 937.077,218.854 937.91,225.354 934,232.5C 932.59,233.787 931.09,234.954 929.5,236C 867.194,248.795 804.861,261.461 742.5,274C 739.946,287.977 734.113,300.477 725,311.5C 723.442,313.359 721.609,314.859 719.5,316C 841.323,313.369 961.323,326.869 1079.5,356.5C 1079.5,357.167 1079.5,357.833 1079.5,358.5C 842.377,332.89 608.377,350.056 377.5,410C 245.217,444.691 119.883,495.858 1.5,563.5C 0.833333,563.5 0.166667,563.5 -0.5,563.5C -0.5,563.167 -0.5,562.833 -0.5,562.5C 143.357,452.433 304.69,379.266 483.5,343C 540.657,331.358 598.324,323.358 656.5,319C 647.419,312.848 640.419,304.848 635.5,295C 627.905,296.208 620.238,296.875 612.5,297C 604.963,292.968 602.463,286.802 605,278.5C 606.122,276.376 607.622,274.543 609.5,273C 616.376,270.724 623.376,268.891 630.5,267.5C 637.981,232.418 659.647,216.251 695.5,219C 712.872,222.71 726.039,232.21 735,247.5C 776.296,239.241 817.463,230.741 858.5,222C 723.683,188.006 587.35,180.34 449.5,199C 361.909,208.449 277.242,229.449 195.5,262C 166.13,274.85 137.797,289.517 110.5,306C 96.5082,307.343 91.0082,301.177 94,287.5C 95.5,284.667 97.6667,282.5 100.5,281C 193.12,227.126 292.787,193.793 399.5,181C 469.044,169.705 539.044,164.038 609.5,164C 638.466,134.017 671.133,109.017 707.5,89C 770.997,55.2759 837.663,29.6092 907.5,12C 927.032,8.12901 946.365,3.96234 965.5,-0.5 Z M 685.5,233.5 C 704.623,234.116 717.456,243.449 724,261.5C 725.643,267.011 725.809,272.511 724.5,278C 700.968,278.816 687.301,267.483 683.5,244C 684.116,240.47 684.782,236.97 685.5,233.5 Z M 670.5,235.5 C 672.017,235.511 673.184,236.177 674,237.5C 684.186,256.568 681.02,273.068 664.5,287C 660.486,289.46 656.32,290.626 652,290.5C 644.369,274.587 646.035,259.587 657,245.5C 661.12,241.532 665.62,238.199 670.5,235.5 Z M 686.5,280.5 C 696.788,279.243 706.455,281.076 715.5,286C 717.585,287.041 719.252,288.541 720.5,290.5C 715.162,301.326 706.496,307.826 694.5,310C 681.973,312.815 671.306,309.815 662.5,301C 667.029,289.961 675.029,283.128 686.5,280.5 Z"/></g>
<g><path style="opacity:0.954" fill="#eff0f2" d="M 616.5,203.5 C 617.097,203.735 617.43,204.235 617.5,205C 609.667,227.167 601.833,249.333 594,271.5C 593.036,284.447 591.536,297.28 589.5,310C 583.934,311.046 578.434,312.213 573,313.5C 573.733,300.663 574.9,287.829 576.5,275C 572.627,255.303 568.627,235.637 564.5,216C 564.645,215.228 564.978,214.561 565.5,214C 571.536,212.939 577.536,211.772 583.5,210.5C 584.859,221.51 586.359,232.51 588,243.5C 591.667,231.833 595.333,220.167 599,208.5C 604.825,206.508 610.658,204.842 616.5,203.5 Z"/></g>
<g><path style="opacity:0.953" fill="#eff0f2" d="M 541.5,216.5 C 542.675,216.281 543.675,216.614 544.5,217.5C 543.629,224.269 542.295,230.935 540.5,237.5C 537.099,236.114 534.599,237.114 533,240.5C 530.635,260.485 528.468,280.485 526.5,300.5C 527.541,304.682 529.875,305.515 533.5,303C 534.126,302.25 534.626,301.416 535,300.5C 536.757,287.189 538.257,273.856 539.5,260.5C 544.93,260.014 550.263,259.014 555.5,257.5C 555.833,258.5 556.167,259.5 556.5,260.5C 554.989,278.289 552.822,295.955 550,313.5C 548.269,315.617 546.102,317.117 543.5,318C 533.642,322.207 523.642,322.874 513.5,320C 510.4,317.208 508.733,313.708 508.5,309.5C 510.807,284.429 513.64,259.429 517,234.5C 519.5,226.667 524.667,221.5 532.5,219C 535.678,218.34 538.678,217.507 541.5,216.5 Z"/></g>
<g><path style="opacity:0.951" fill="#eff0f2" d="M 485.5,227.5 C 487.833,227.5 490.167,227.5 492.5,227.5C 491.833,234.167 491.167,240.833 490.5,247.5C 484.61,245.779 481.443,248.112 481,254.5C 478.471,274.12 476.804,293.787 476,313.5C 480.589,315.197 483.256,313.53 484,308.5C 485.333,296.5 486.667,284.5 488,272.5C 492.518,270.357 497.352,269.023 502.5,268.5C 503.5,268.833 504.5,269.167 505.5,269.5C 503.405,286.448 501.572,303.448 500,320.5C 498.412,325.052 495.245,327.885 490.5,329C 484.445,330.759 478.279,331.926 472,332.5C 465.588,332.634 460.922,329.968 458,324.5C 458.87,303.13 460.536,281.796 463,260.5C 463.356,252.379 465.356,244.713 469,237.5C 473.715,232.732 479.215,229.399 485.5,227.5 Z"/></g>
<g><path style="opacity:0.953" fill="#eff0f2" d="M 455.5,235.5 C 456.5,235.5 457.5,235.5 458.5,235.5C 456.203,265.934 453.036,296.267 449,326.5C 445.463,336.697 438.296,342.53 427.5,344C 422.833,344.667 418.167,344.667 413.5,344C 410.572,342.74 408.739,340.573 408,337.5C 408.941,306.42 411.274,275.42 415,244.5C 420.46,243.107 425.96,241.774 431.5,240.5C 430.064,267.365 427.731,294.198 424.5,321C 425.337,322.011 425.67,323.178 425.5,324.5C 429.182,325.275 431.682,323.941 433,320.5C 435.733,293.508 438.399,266.508 441,239.5C 445.911,238.091 450.744,236.758 455.5,235.5 Z"/></g>
<g><path style="opacity:0.957" fill="#eff0f2" d="M 389.5,248.5 C 400.575,246.516 406.575,251.016 407.5,262C 406.8,269.524 405.633,277.024 404,284.5C 402.477,288.852 399.977,292.519 396.5,295.5C 401.785,298.533 404.118,303.2 403.5,309.5C 402.743,317.892 401.576,326.225 400,334.5C 398.037,340.799 394.203,345.632 388.5,349C 377.906,351.819 367.239,354.319 356.5,356.5C 356.167,355.5 355.833,354.5 355.5,353.5C 357.278,333.436 359.445,313.436 362,293.5C 369.513,291.797 377.013,289.963 384.5,288C 388.227,282.757 389.393,276.924 388,270.5C 380.042,269.718 372.208,270.718 364.5,273.5C 364.167,272.5 363.833,271.5 363.5,270.5C 364.233,264.832 364.9,259.165 365.5,253.5C 373.723,252.323 381.723,250.656 389.5,248.5 Z M 377.5,308.5 C 379.924,308.192 382.257,308.526 384.5,309.5C 385.494,316.231 384.994,322.898 383,329.5C 378.762,334.457 376.262,334.124 375.5,328.5C 376.167,321.825 376.834,315.159 377.5,308.5 Z"/></g>
<g><path style="opacity:0.955" fill="#eff0f2" d="M 294.5,265.5 C 299.511,265.334 304.511,265.501 309.5,266C 314.309,269.576 316.309,274.41 315.5,280.5C 315.09,286.507 314.59,292.507 314,298.5C 313.626,299.416 313.126,300.25 312.5,301C 307.24,301.918 302.073,303.084 297,304.5C 296.868,298.493 296.868,292.493 297,286.5C 293.914,284.78 291.581,285.447 290,288.5C 287.308,308.086 285.141,327.752 283.5,347.5C 283.353,353.168 285.519,354.502 290,351.5C 292.282,343.694 293.449,335.694 293.5,327.5C 299.455,326.242 305.455,325.242 311.5,324.5C 310.591,334.184 309.424,343.851 308,353.5C 305.5,362.667 299.667,368.5 290.5,371C 270.235,377.738 262.068,370.571 266,349.5C 267.854,327.775 270.187,306.108 273,284.5C 276.303,273.692 283.47,267.358 294.5,265.5 Z"/></g>
<g><path style="opacity:0.955" fill="#eff0f2" d="M 244.5,277.5 C 249.179,277.334 253.845,277.501 258.5,278C 261.381,279.251 263.214,281.417 264,284.5C 263.457,309.929 261.457,335.263 258,360.5C 255.936,370.231 250.103,376.397 240.5,379C 232.196,381.027 223.863,382.861 215.5,384.5C 214.707,377.859 214.707,371.192 215.5,364.5C 223.273,363.579 230.94,362.079 238.5,360C 239.701,359.097 240.535,357.931 241,356.5C 243.894,337.011 245.394,317.511 245.5,298C 242.472,296.86 240.305,297.694 239,300.5C 237.393,319.172 235.727,337.839 234,356.5C 233.228,357.849 232.061,358.682 230.5,359C 225.856,360.029 221.19,360.862 216.5,361.5C 218.833,334.833 221.167,308.167 223.5,281.5C 230.717,280.656 237.717,279.322 244.5,277.5 Z"/></g>
<g><path style="opacity:0.957" fill="#eff0f2" d="M 202.5,284.5 C 208.687,284.678 212.854,287.678 215,293.5C 215.683,300.861 215.517,308.195 214.5,315.5C 209.07,315.986 203.737,316.986 198.5,318.5C 197.878,314.874 197.711,311.207 198,307.5C 193.378,304.191 190.711,305.525 190,311.5C 189.299,314.928 189.632,318.262 191,321.5C 195.366,326.201 200.033,330.534 205,334.5C 207.434,337.795 209.101,341.462 210,345.5C 211.777,358.019 210.111,370.019 205,381.5C 200.498,386.337 194.998,389.503 188.5,391C 179.064,391.933 169.731,393.433 160.5,395.5C 159.981,388.849 160.314,382.182 161.5,375.5C 170.829,374.334 180.162,373.167 189.5,372C 194.136,366.204 194.636,360.038 191,353.5C 186.967,349.132 182.634,345.132 178,341.5C 170.891,329.884 169.558,317.55 174,304.5C 176.404,295.763 181.904,289.929 190.5,287C 194.637,286.161 198.637,285.327 202.5,284.5 Z"/></g>
</svg>
