<?xml version="1.0" standalone="no"?>
<!DOCTYPE svg PUBLIC "-//W3C//DTD SVG 20010904//EN"
 "http://www.w3.org/TR/2001/REC-SVG-20010904/DTD/svg10.dtd">
<svg version="1.0" xmlns="http://www.w3.org/2000/svg"
 width="1080.000000pt" height="564.000000pt" viewBox="0 0 1080.000000 564.000000"
 preserveAspectRatio="xMidYMid meet">

<g transform="translate(0.000000,564.000000) scale(0.100000,-0.100000)"
fill="#000000" stroke="none">
<path d="M9365 5569 c-181 -38 -395 -87 -475 -110 -175 -49 -576 -182 -830
-274 -451 -164 -950 -414 -1330 -668 -204 -136 -320 -230 -520 -423 l-105
-101 -310 -6 c-521 -11 -1064 -58 -1630 -143 -1050 -156 -1607 -301 -2300
-596 -405 -173 -866 -418 -906 -481 -25 -40 -21 -117 7 -148 22 -25 74 -49
104 -49 12 0 96 43 188 96 207 119 555 293 727 364 392 161 979 342 1390 429
462 98 1191 209 1580 241 439 35 1291 51 1645 31 616 -36 1299 -140 1930 -295
61 -15 88 -25 75 -29 -11 -3 -294 -60 -630 -127 -335 -67 -616 -123 -622 -125
-7 -2 -22 13 -33 35 -27 53 -136 159 -197 193 -64 34 -189 67 -258 67 -66 0
-194 -32 -265 -67 -68 -33 -165 -129 -209 -205 -18 -32 -41 -95 -53 -142 l-21
-84 -86 -17 c-93 -18 -114 -27 -148 -58 -71 -64 -11 -207 86 -207 35 0 135 15
173 26 11 3 26 -12 51 -53 49 -81 103 -141 156 -175 25 -15 41 -28 35 -28 -31
-1 -378 -33 -534 -50 -1977 -219 -3852 -885 -5390 -1914 -213 -143 -519 -363
-585 -421 -35 -31 -39 -33 220 111 199 110 646 334 880 441 1677 768 3531
1258 5525 1463 1173 120 2485 131 3660 30 124 -11 259 -22 300 -25 l75 -5 -70
20 c-274 77 -917 202 -1340 259 -581 79 -1017 110 -1668 118 l-468 6 29 26
c93 83 166 222 181 345 l6 51 200 41 c110 23 529 108 930 189 402 81 744 153
762 160 42 18 68 60 68 110 0 51 -24 89 -73 114 -119 60 -660 183 -1348 305
-426 76 -762 121 -1093 146 -80 6 -153 16 -162 21 -51 27 -66 115 -28 163 45
57 170 142 518 353 446 270 1230 577 1912 748 173 44 548 126 638 140 92 15
146 108 107 184 -21 39 -71 71 -111 70 -16 0 -178 -32 -360 -70z m-2329 -2295
c69 -32 155 -118 189 -188 30 -62 45 -146 36 -201 l-7 -40 -74 1 c-92 1 -160
32 -231 105 -86 88 -119 186 -104 305 l7 57 64 -6 c37 -4 87 -17 120 -33z
m-277 -29 c40 -63 55 -123 49 -204 -6 -84 -48 -181 -102 -234 -37 -38 -110
-79 -157 -90 -24 -6 -28 -2 -49 46 -76 179 10 418 185 510 17 9 33 16 38 17 4
0 20 -20 36 -45z m343 -435 c30 -11 69 -33 88 -49 l34 -28 -25 -39 c-60 -90
-138 -142 -249 -165 -107 -22 -225 4 -309 69 l-23 19 21 42 c48 93 127 153
228 171 68 12 173 3 235 -20z"/>
<path d="M6079 3572 l-76 -15 -21 -66 c-11 -36 -38 -120 -58 -186 -43 -138
-41 -140 -69 65 -10 74 -21 138 -25 143 -6 7 -158 -17 -168 -28 -3 -2 21 -136
53 -296 l58 -292 -17 -189 c-10 -104 -16 -192 -13 -194 5 -5 148 24 156 31 2
3 13 91 23 196 l19 190 115 320 c62 177 114 325 114 330 0 5 -3 8 -7 8 -5 -1
-42 -8 -84 -17z"/>
<path d="M5345 3442 c-96 -33 -144 -85 -170 -181 -21 -80 -81 -736 -70 -767
25 -70 118 -90 254 -55 96 24 136 49 149 94 12 39 58 505 50 512 -7 7 -138
-21 -148 -31 -4 -5 -15 -85 -24 -179 -21 -204 -28 -230 -64 -243 -42 -14 -52
-5 -52 44 0 45 45 512 55 571 7 42 29 63 64 63 27 0 29 3 35 58 4 31 9 74 13
95 5 34 4 37 -18 37 -13 -1 -47 -8 -74 -18z"/>
<path d="M4832 3339 c-83 -26 -141 -82 -165 -159 -10 -33 -31 -197 -51 -405
-38 -394 -38 -407 24 -437 82 -42 303 1 345 66 12 18 71 533 63 542 -3 2 -150
-26 -155 -30 -1 -1 -11 -89 -23 -196 -19 -183 -22 -196 -46 -217 -14 -13 -31
-23 -39 -23 -37 0 -36 41 11 484 19 182 28 206 78 206 28 0 32 9 41 95 3 33 8
68 11 78 7 22 -13 22 -94 -4z"/>
<path d="M4487 3255 c-32 -7 -60 -15 -62 -17 -3 -3 -23 -189 -45 -414 -36
-382 -41 -410 -61 -426 -27 -23 -58 -23 -66 -2 -3 10 11 196 32 416 20 219 35
401 33 404 -5 4 -149 -23 -156 -31 -10 -10 -84 -864 -78 -898 4 -20 18 -49 31
-64 22 -26 28 -28 97 -27 134 2 237 64 273 164 15 41 34 208 83 723 l18 187
-21 -1 c-11 -1 -46 -7 -78 -14z"/>
<path d="M3777 3115 c-59 -12 -109 -24 -111 -26 -2 -2 -7 -44 -11 -93 l-8 -89
24 6 c61 17 192 38 204 33 35 -13 24 -156 -13 -189 -9 -8 -66 -24 -127 -36
-60 -12 -110 -23 -111 -24 -5 -6 -56 -608 -52 -612 7 -7 255 44 297 61 83 35
124 100 146 236 30 184 15 272 -46 285 l-30 6 34 28 c51 42 75 100 88 214 14
116 7 168 -26 201 -21 21 -33 24 -87 23 -35 -1 -111 -11 -171 -24z m77 -656
c0 -111 -14 -143 -67 -157 -17 -5 -33 -8 -35 -7 -1 1 3 59 9 128 13 134 14
137 69 134 25 -2 25 -2 24 -98z"/>
<path d="M2931 2964 c-102 -27 -160 -79 -186 -167 -18 -59 -75 -623 -75 -737
0 -126 40 -162 158 -146 133 18 218 79 246 176 13 47 36 224 36 279 0 17 -5
17 -80 3 -91 -18 -84 -8 -96 -151 -5 -62 -11 -88 -25 -102 -23 -23 -65 -25
-72 -4 -4 8 7 148 23 312 17 164 30 304 30 311 0 19 38 52 60 52 31 0 39 -28
30 -110 -5 -41 -7 -76 -6 -77 2 -2 39 4 83 13 l80 16 7 67 c9 104 7 198 -6
226 -24 54 -100 68 -207 39z"/>
<path d="M2373 2836 c-62 -12 -116 -25 -119 -29 -7 -6 -83 -770 -78 -776 5 -6
154 21 159 29 4 6 55 548 55 582 0 17 52 29 71 17 25 -15 -25 -585 -54 -617
-12 -13 -50 -25 -116 -37 -55 -10 -105 -21 -112 -25 -11 -7 -33 -170 -24 -179
10 -9 234 42 289 67 68 30 109 79 131 156 8 28 28 200 45 382 34 353 33 390
-10 429 -30 27 -109 28 -237 1z"/>
<path d="M1940 2767 c-147 -41 -205 -139 -205 -342 0 -133 11 -157 115 -252
80 -73 94 -103 88 -180 -6 -75 -25 -89 -126 -98 -117 -9 -167 -16 -179 -23 -6
-4 -15 -47 -19 -96 l-7 -88 29 6 c16 3 81 13 144 21 249 32 323 116 324 365 1
131 -15 165 -120 264 -83 77 -100 115 -84 178 13 46 36 70 64 66 18 -3 21 -11
24 -66 3 -60 4 -64 25 -59 12 3 47 10 78 17 l56 11 5 75 c10 151 -19 205 -114
210 -29 2 -73 -2 -98 -9z"/>
</g>
</svg>
