<svg version="1.1" id="Layer_1" xmlns="http://www.w3.org/2000/svg" xmlns:xlink="http://www.w3.org/1999/xlink" x="0px" y="0px"
	 width="100%" viewBox="0 0 900 600" enable-background="new 0 0 900 600" xml:space="preserve">
<path fill="#FEFEFE" opacity="1.000000" stroke="none" 
	d="
M664.000000,601.000000 
	C444.166656,601.000000 224.833328,600.988831 5.500045,601.093506 
	C1.750785,601.095276 0.904367,600.249268 0.906386,596.499939 
	C1.012432,399.500000 1.012432,202.500000 0.906386,5.500051 
	C0.904367,1.750745 1.750873,0.905528 5.500032,0.906809 
	C302.500000,1.008261 599.500000,1.008261 896.499939,0.906809 
	C900.249146,0.905528 901.095703,1.750745 901.093628,5.500051 
	C900.987610,202.500000 900.987549,399.500000 901.093628,596.499939 
	C901.095642,600.249268 900.249939,601.101624 896.499817,601.095398 
	C819.166748,600.968567 741.833313,601.000000 664.000000,601.000000 
z"/>
<path fill="#040404" opacity="1.000000" stroke="none" 
	d="
M248.769531,378.999847 
	C248.767258,318.515472 248.766266,258.531158 248.760651,198.546814 
	C248.760132,193.049454 248.761078,193.081848 243.888779,195.282700 
	C238.433411,197.746933 232.948013,200.144653 226.624893,202.948578 
	C226.624893,193.175354 226.615036,183.940521 226.632721,174.705734 
	C226.636551,172.709976 228.395020,172.511093 229.702850,171.917160 
	C234.704102,169.645920 239.640350,167.199692 244.759903,165.232651 
	C247.891052,164.029587 248.885483,162.383652 248.864395,158.978119 
	C248.696304,131.819534 248.794388,104.659401 248.732971,77.499916 
	C248.726486,74.630630 248.507019,72.622955 252.661530,72.637840 
	C256.929810,72.653137 256.092682,75.107208 256.093536,77.463310 
	C256.102844,103.456558 256.151489,129.450058 256.029358,155.442749 
	C256.012054,159.119705 256.473755,160.091583 260.296997,158.377396 
	C303.589294,138.966934 346.946350,119.700974 390.292664,100.411087 
	C410.059937,91.614296 429.857361,82.884972 449.596375,74.025368 
	C451.941376,72.972824 453.902954,73.033958 456.198944,74.058113 
	C502.259827,94.603935 548.345764,115.093651 594.423889,135.600784 
	C621.338440,147.579117 648.220886,159.630539 675.197815,171.466614 
	C678.279602,172.818741 679.442444,174.305511 679.295044,177.692795 
	C678.998535,184.511414 678.946838,191.364929 679.292236,198.178787 
	C679.526489,202.802399 678.048584,202.602783 674.580322,201.042603 
	C651.209900,190.529465 627.769409,180.172089 604.353149,169.760864 
	C555.082336,147.854370 505.801971,125.969170 456.568390,103.979218 
	C453.652710,102.676949 451.291687,103.019493 448.552307,104.241096 
	C396.108490,127.628128 343.637360,150.953873 291.172058,174.292725 
	C280.989136,178.822540 270.875854,183.519958 260.585846,187.791718 
	C257.147766,189.218979 256.001465,190.978745 256.007660,194.718735 
	C256.127625,267.199738 256.096771,339.681000 256.096832,412.162201 
	C256.096832,413.495178 255.951096,414.847137 256.123627,416.157288 
	C256.500702,419.020508 255.004578,419.372040 252.618011,419.375732 
	C250.118622,419.379608 248.652145,419.192657 248.698868,415.988892 
	C248.876160,403.828125 248.769806,391.663239 248.769531,378.999847 
z"/>
<path fill="#050505" opacity="1.000000" stroke="none" 
	d="
M483.491760,389.506104 
	C469.182068,407.605408 450.536072,415.871857 428.070038,416.028595 
	C415.912445,416.113403 403.752655,415.964996 391.596649,416.129364 
	C388.477692,416.171509 387.314240,415.543640 387.319305,412.068481 
	C387.423889,340.285614 387.390381,268.502563 387.400330,196.719528 
	C387.400604,194.675018 386.670166,192.236160 390.311157,192.315369 
	C405.953766,192.655685 421.670105,191.311020 437.229248,193.415985 
	C466.423279,197.365616 486.543396,213.773865 495.670013,241.314575 
	C509.974915,284.481293 509.597290,328.032288 494.088257,371.086884 
	C491.710541,377.687683 487.935455,383.616425 483.491760,389.506104 
z"/>
<path fill="#040404" opacity="1.000000" stroke="none" 
	d="
M563.896118,302.000427 
	C563.969116,322.333923 564.297058,342.142944 569.089050,361.564667 
	C570.170044,365.945984 571.627014,370.177429 573.531982,374.268921 
	C580.849304,389.984955 596.099670,396.134583 612.207764,389.704376 
	C619.809692,386.669739 626.514709,382.057892 633.749939,376.128571 
	C633.749939,386.573883 633.906982,395.944519 633.648071,405.303711 
	C633.576416,407.895447 630.550476,408.610870 628.645020,409.753418 
	C596.423035,429.074036 561.525818,418.323730 545.127319,384.001190 
	C535.765015,364.405518 532.492310,343.401642 531.482788,321.970703 
	C530.207581,294.899048 531.234619,268.000580 539.169922,241.812012 
	C542.964050,229.290451 548.306091,217.495804 557.044678,207.540909 
	C573.094910,189.256729 597.670898,184.667465 619.821655,194.744354 
	C628.124695,198.521606 632.587280,202.931015 631.012512,212.569016 
	C630.148254,217.858521 630.857910,223.405182 630.857910,229.511597 
	C626.418030,226.593536 622.732178,223.861481 618.764526,221.630676 
	C611.508728,217.551132 603.742554,215.260315 595.302979,216.565948 
	C580.634521,218.835190 574.277954,229.474136 570.265564,242.098053 
	C565.786072,256.191528 565.003906,270.873077 564.218079,285.511230 
	C563.932373,290.831421 563.993958,296.170227 563.896118,302.000427 
z"/>
<path fill="#040404" opacity="1.000000" stroke="none" 
	d="
M317.737579,273.149719 
	C327.123108,290.826935 337.910889,307.306488 346.406036,325.055267 
	C353.082794,339.005005 358.138763,353.393372 357.873627,369.105438 
	C357.290314,403.676270 328.333221,425.884705 294.739105,417.638824 
	C277.268707,413.350616 276.823730,412.789490 276.823853,395.051941 
	C276.823883,390.725525 276.823822,386.399139 276.823822,381.888031 
	C279.323151,381.668884 280.397552,383.680542 281.905304,384.704407 
	C290.251617,390.371948 299.007080,394.607544 309.457092,392.284821 
	C322.059235,389.483765 328.895020,379.680450 327.309509,366.913025 
	C325.497375,352.320862 318.153320,339.923065 311.284851,327.382721 
	C301.452728,309.431274 290.364563,292.138000 282.557861,273.129486 
	C277.911438,261.815948 274.709381,250.126633 275.244202,237.709396 
	C276.681305,204.343948 304.998871,183.072113 337.524353,190.917938 
	C351.034271,194.176804 351.034302,194.176804 351.034332,207.853256 
	C351.034332,212.463882 351.034302,217.074493 351.034302,221.975891 
	C346.260773,220.188614 341.965973,218.518600 337.627197,216.971909 
	C332.282471,215.066544 326.745422,215.228790 321.328033,216.272629 
	C311.597778,218.147491 306.373810,224.293518 305.588226,234.235062 
	C304.855927,243.502701 307.886566,251.981262 311.367126,260.297852 
	C313.162323,264.587494 315.462158,268.665924 317.737579,273.149719 
z"/>
<path fill="#212121" opacity="1.000000" stroke="none" 
	d="
M511.398010,464.008423 
	C511.395264,459.852692 511.394714,456.192200 511.388672,452.531677 
	C511.386047,450.924286 512.984680,449.360657 513.574768,450.529938 
	C515.858582,455.055206 517.394714,451.107056 519.221863,450.445770 
	C522.774658,449.159790 526.271851,448.918060 528.489014,452.589661 
	C529.935303,454.984711 530.653870,454.131500 531.965637,452.629669 
	C534.374451,449.871826 537.499329,448.932648 540.998535,450.045471 
	C544.575256,451.182892 545.606934,454.380127 545.776367,457.558105 
	C546.130371,464.196259 546.046143,470.857605 546.154541,477.509216 
	C546.176575,478.861084 545.759766,479.809113 544.214111,479.777344 
	C542.477905,479.741608 542.602478,478.420685 542.584473,477.278809 
	C542.492798,471.458710 542.578247,465.630920 542.294434,459.820862 
	C542.151001,456.884857 541.910400,453.512512 537.835938,453.122467 
	C534.790710,452.830994 530.953003,456.655334 530.822021,460.297333 
	C530.630798,465.614899 530.796814,470.944611 530.743591,476.268433 
	C530.729797,477.643127 531.328369,479.579285 529.003967,479.687683 
	C526.198547,479.818542 527.027039,477.563141 527.001465,476.099335 
	C526.908508,470.776520 527.057312,465.447601 526.881042,460.128754 
	C526.776001,456.960938 526.583191,453.474823 522.207703,453.158875 
	C519.111755,452.935333 515.346191,456.729828 515.205994,460.398193 
	C515.002869,465.715088 515.173340,471.045349 515.098938,476.368713 
	C515.080200,477.704376 515.781250,479.667725 513.340271,479.709229 
	C510.989777,479.749268 511.413116,477.923431 511.405853,476.483459 
	C511.385742,472.490265 511.398315,468.496948 511.398010,464.008423 
z"/>
<path fill="#1F1F1F" opacity="1.000000" stroke="none" 
	d="
M345.098541,447.592834 
	C345.097900,444.648804 345.085388,442.149933 345.102081,439.651276 
	C345.110687,438.364899 344.760834,436.860870 346.841644,436.778839 
	C348.739838,436.704041 348.933807,437.837799 348.929504,439.350983 
	C348.893616,452.011017 348.899628,464.671204 348.891052,477.331329 
	C348.889740,479.250427 347.054504,480.737122 346.424164,479.100464 
	C344.785675,474.846283 343.478760,477.830475 342.005310,478.761200 
	C336.757172,482.076447 331.128693,480.417206 328.961182,474.635559 
	C326.911011,469.166748 326.990662,463.490601 328.646667,457.943695 
	C330.605835,451.381195 335.498749,448.472260 342.079346,450.187286 
	C344.593414,450.842529 345.431061,450.665314 345.098541,447.592834 
z"/>
<path fill="#202020" opacity="1.000000" stroke="none" 
	d="
M452.364014,479.292480 
	C444.808716,481.441101 440.636627,479.162567 439.177002,472.034821 
	C438.309113,467.796692 438.246552,463.421692 439.348724,459.164764 
	C441.303619,451.614380 445.806488,448.547516 453.360931,450.231079 
	C456.304962,450.887177 456.356049,449.825714 456.305481,447.706573 
	C456.242065,445.048279 456.268829,442.387329 456.286743,439.727722 
	C456.295593,438.413177 456.101227,436.906647 458.074341,436.806244 
	C460.557892,436.679840 460.005493,438.552094 460.008362,439.932098 
	C460.033966,452.233307 460.035339,464.534668 460.005066,476.835846 
	C460.002472,477.886963 460.489258,479.324249 458.785065,479.627228 
	C457.552612,479.846375 457.379700,478.856537 456.800018,478.006989 
	C454.676147,474.894531 454.247406,479.294220 452.364014,479.292480 
z"/>
<path fill="#1D1D1D" opacity="1.000000" stroke="none" 
	d="
M622.931519,451.669312 
	C625.663208,449.961853 627.003906,450.752136 627.853088,453.704529 
	C629.915527,460.875275 632.300049,467.953430 634.662903,475.410217 
	C636.444519,474.276672 636.369324,472.524109 636.780762,471.117645 
	C638.599548,464.900085 640.354736,458.663147 642.050842,452.410950 
	C642.466248,450.879791 643.219177,450.052734 644.832153,450.264008 
	C646.782410,450.519409 646.087524,451.853851 645.788757,452.901642 
	C642.601318,464.078339 639.578003,475.307312 636.099121,486.393127 
	C634.268250,492.227356 630.923523,494.207001 626.689819,493.097687 
	C625.369690,492.751801 623.800598,492.318451 623.960266,490.727325 
	C624.176331,488.573425 625.719116,489.531952 626.979065,489.842651 
	C629.589355,490.486450 631.299255,489.048309 631.961243,486.825195 
	C632.655701,484.493042 635.521423,482.109406 632.442566,479.511963 
	C631.183838,478.449982 631.037720,476.914185 630.598083,475.520325 
	C628.400269,468.550934 626.258850,461.563782 624.083252,454.183533 
	C623.487488,453.324829 623.033081,452.779510 622.931519,451.669312 
z"/>
<path fill="#1D1D1D" opacity="1.000000" stroke="none" 
	d="
M356.181763,475.710449 
	C352.442352,468.941406 352.256134,462.390137 355.701477,455.870575 
	C358.399811,450.764618 363.600006,448.434875 368.138550,450.074097 
	C372.000000,451.468689 375.644775,459.198669 374.735901,463.654724 
	C374.317200,465.707611 372.874817,465.190918 371.682922,465.233673 
	C367.696136,465.376526 363.705048,465.503601 359.717072,465.468506 
	C357.385834,465.447998 356.931763,466.436615 357.260559,468.550262 
	C358.199188,474.583496 363.071686,477.672363 369.889679,476.538696 
	C371.186218,476.323090 373.193085,474.831879 373.752411,476.820923 
	C374.374695,479.033936 371.803131,479.175995 370.402191,479.566040 
	C365.119476,481.036774 360.157654,480.768707 356.181763,475.710449 
z"/>
<path fill="#1F1F1F" opacity="1.000000" stroke="none" 
	d="
M423.485291,523.524536 
	C415.468140,529.684631 406.675690,526.861633 404.275024,517.532959 
	C402.825562,511.900574 402.933899,506.299988 406.459869,501.260162 
	C411.433838,494.150635 421.304321,494.524170 425.326813,502.228851 
	C429.076538,509.411133 428.895233,516.594482 423.485291,523.524536 
z"/>
<path fill="#1D1D1D" opacity="1.000000" stroke="none" 
	d="
M601.826416,458.392151 
	C603.445862,463.739960 603.259155,468.616974 601.077759,473.350250 
	C599.009644,477.837708 595.502014,480.342590 590.520996,480.328064 
	C585.698303,480.313995 582.328308,477.697815 580.378662,473.482391 
	C578.049255,468.445801 577.944641,463.128754 579.862305,457.955566 
	C581.666748,453.088135 585.089050,449.801056 590.565369,449.672302 
	C596.335388,449.536621 599.682373,452.969666 601.826416,458.392151 
z"/>
<path fill="#131313" opacity="1.000000" stroke="none" 
	d="
M467.695953,500.196991 
	C463.510406,502.517822 461.723022,505.584625 462.084442,510.156586 
	C462.436920,514.615845 462.156067,519.125061 462.157990,523.612305 
	C462.158569,524.952576 462.374359,526.417358 460.272430,526.291382 
	C458.614349,526.192078 458.587158,525.038025 458.585754,523.815979 
	C458.576447,515.672302 458.547852,507.528595 458.553558,499.384918 
	C458.554199,498.431702 458.430756,497.283997 459.749573,497.010376 
	C460.655762,496.822388 461.447937,497.167664 461.604950,498.159454 
	C462.017487,500.764984 462.872406,499.938843 464.416809,498.847565 
	C471.710266,493.694000 478.330261,496.683868 479.038910,505.634247 
	C479.509949,511.583435 479.226105,517.591797 479.301758,523.573425 
	C479.319611,524.983948 479.341217,526.374939 477.356201,526.255432 
	C475.304382,526.132019 475.743774,524.541809 475.723145,523.277100 
	C475.631165,517.629211 475.844299,511.957611 475.383453,506.340851 
	C475.049164,502.266418 473.467194,498.693665 467.695953,500.196991 
z"/>
<path fill="#1D1D1D" opacity="1.000000" stroke="none" 
	d="
M479.129944,449.891907 
	C490.493073,453.035492 491.307617,471.194885 483.802734,477.603394 
	C479.190033,481.542267 472.306519,481.190826 468.193085,476.525146 
	C463.167603,470.825012 463.264679,458.939880 468.398193,453.375366 
	C471.205994,450.331818 474.673645,449.153870 479.129944,449.891907 
z"/>
<path fill="#262626" opacity="1.000000" stroke="none" 
	d="
M379.083984,463.016541 
	C379.081512,459.191711 379.077972,455.862579 379.098236,452.533600 
	C379.110291,450.549988 381.117950,449.272308 381.676758,450.764191 
	C383.412170,455.397339 384.909241,451.939117 386.421661,451.029297 
	C391.900238,447.733612 397.668640,449.974731 399.186707,456.283051 
	C400.882355,463.329315 399.746460,470.539795 399.994781,477.673248 
	C400.043732,479.078339 399.342468,479.858459 397.852448,479.727997 
	C396.248108,479.587555 396.169159,478.435333 396.167542,477.204651 
	C396.161591,472.710205 396.145569,468.215698 396.119873,463.721313 
	C396.113220,462.556915 396.170013,461.376404 396.003052,460.231689 
	C395.517456,456.902191 395.161438,453.303192 390.639679,453.129852 
	C387.140167,452.995697 383.040710,457.168915 382.951752,460.918793 
	C382.829437,466.076355 382.932831,471.238953 382.895172,476.399078 
	C382.884918,477.804688 383.394501,479.671936 381.050476,479.718750 
	C378.707794,479.765503 379.114563,477.940094 379.107605,476.496338 
	C379.086700,472.168396 379.095612,467.840302 379.083984,463.016541 
z"/>
<path fill="#272727" opacity="1.000000" stroke="none" 
	d="
M435.897888,512.762695 
	C435.958405,514.395020 435.890808,515.582092 436.101013,516.717773 
	C436.718933,520.055664 437.301422,523.556824 441.914825,523.363831 
	C445.336884,523.220703 449.056213,519.380005 449.155640,515.709656 
	C449.295349,510.552521 449.159882,505.388428 449.217072,500.228119 
	C449.232239,498.857758 448.662018,496.986176 451.047760,496.882874 
	C453.538971,496.774994 452.955414,498.680511 452.961945,500.044769 
	C452.999329,507.869171 452.969147,515.693848 452.981201,523.518433 
	C452.984100,525.405518 451.667603,527.752380 450.509003,525.741272 
	C448.498474,522.251282 447.455231,524.391602 445.820129,525.413269 
	C440.103516,528.985474 434.244598,526.611206 432.873505,520.035278 
	C431.432159,513.122620 432.327545,506.092590 432.145447,499.115875 
	C432.110779,497.787476 432.546661,496.843811 434.129303,496.900940 
	C435.769196,496.960114 435.894196,498.072845 435.894073,499.308105 
	C435.893616,503.636719 435.895630,507.965332 435.897888,512.762695 
z"/>
<path fill="#242424" opacity="1.000000" stroke="none" 
	d="
M323.076630,463.012939 
	C323.081665,467.996613 323.098785,472.483429 323.078491,476.970032 
	C323.074188,477.922028 323.306183,479.113800 322.118500,479.525635 
	C320.612122,480.048035 320.117249,479.092133 319.836639,477.762207 
	C319.354218,475.475769 318.501495,476.945679 317.599915,477.551208 
	C309.448486,483.026093 303.517792,480.393829 302.529419,470.512604 
	C301.952911,464.748993 302.249207,458.897095 302.178955,453.084625 
	C302.163208,451.780884 301.951385,450.247650 303.977356,450.244110 
	C306.307343,450.240082 305.958313,451.990692 305.965759,453.444763 
	C305.990479,458.263763 305.905212,463.084930 306.018677,467.901550 
	C306.159302,473.872681 308.204956,477.026337 311.678375,476.963440 
	C315.675201,476.891052 319.255188,472.502869 319.292084,467.550049 
	C319.327942,462.731201 319.295013,457.911865 319.304901,453.092743 
	C319.307678,451.745087 319.233795,450.305298 321.196960,450.270874 
	C323.226318,450.235291 323.056610,451.719299 323.063049,453.044037 
	C323.078430,456.201294 323.072662,459.358643 323.076630,463.012939 
z"/>
<path fill="#1D1D1D" opacity="1.000000" stroke="none" 
	d="
M264.397766,451.344696 
	C268.836792,448.903381 273.042328,449.419434 277.267914,450.770294 
	C278.202209,451.068970 279.369385,451.302856 278.940369,452.680328 
	C278.628632,453.681213 277.669983,453.545593 276.836212,453.427155 
	C274.196960,453.052307 271.547607,452.803864 268.901733,453.274689 
	C266.808685,453.647156 265.148590,454.532379 264.880219,456.981415 
	C264.609344,459.453461 266.033356,460.616730 268.063568,461.364166 
	C270.400970,462.224731 272.769897,463.004517 275.083130,463.924835 
	C279.496185,465.680603 280.878204,469.125305 280.154785,473.571320 
	C279.456146,477.864929 276.432556,479.665802 272.492157,480.164734 
	C269.681000,480.520721 266.846893,480.424530 264.162506,479.292664 
	C262.986023,478.796570 261.133606,478.574493 261.495178,476.904388 
	C261.922882,474.928680 263.614532,475.964081 264.788635,476.265900 
	C267.072449,476.853027 269.371979,477.087860 271.698914,476.757355 
	C274.390137,476.375183 276.486664,475.169678 276.740753,472.166901 
	C276.978699,469.355164 275.156219,467.973633 272.789703,467.143524 
	C270.913086,466.485229 268.955902,466.031097 267.128448,465.262848 
	C260.353607,462.414764 259.235992,457.260406 264.397766,451.344696 
z"/>
<path fill="#292929" opacity="1.000000" stroke="none" 
	d="
M577.876343,476.968018 
	C576.089233,480.768219 572.893311,480.625671 569.770203,479.971863 
	C566.480652,479.283234 565.322144,476.491425 565.155396,473.577057 
	C564.851990,468.272400 564.892883,462.945496 564.883545,457.627716 
	C564.879822,455.506348 565.054688,453.500153 561.917175,453.849548 
	C560.793945,453.974640 560.045044,453.299927 560.014954,452.079163 
	C559.985046,450.863068 560.686951,450.097809 561.818726,450.225983 
	C565.321838,450.622620 564.878723,448.252869 564.920898,446.101288 
	C564.946899,444.774445 565.111511,443.447571 565.266846,442.126923 
	C565.390747,441.073181 565.811951,440.136230 567.031250,440.097412 
	C568.787354,440.041473 568.628662,441.422394 568.676208,442.558441 
	C568.724792,443.720764 568.822632,444.901978 568.679321,446.047424 
	C568.291565,449.147461 569.255920,450.788940 572.681824,450.224487 
	C574.151184,449.982391 575.420044,450.298920 575.321533,452.185211 
	C575.214417,454.235596 573.598877,454.005920 572.370483,453.762634 
	C568.971069,453.089294 568.525879,454.805450 568.654297,457.627106 
	C568.850769,461.942596 568.645813,466.274811 568.759766,470.595978 
	C568.923157,476.791901 569.831421,477.440613 575.904236,476.237976 
	C576.470459,476.125824 577.127380,476.471832 577.876343,476.968018 
z"/>
<path fill="#1A1A1A" opacity="1.000000" stroke="none" 
	d="
M409.983856,476.813446 
	C407.730743,470.281647 409.083954,463.905365 408.785980,457.626648 
	C408.684723,455.493103 408.889313,453.518311 405.815552,453.832916 
	C404.649902,453.952179 403.908386,453.375854 403.883179,452.129272 
	C403.859467,450.957245 404.406586,450.082214 405.629272,450.251740 
	C409.074615,450.729462 408.871552,448.478790 408.788239,446.249451 
	C408.775848,445.917694 408.759491,445.569214 408.841492,445.253540 
	C409.306793,443.462097 408.233704,440.279755 410.788086,440.295532 
	C413.670441,440.313385 412.260193,443.449677 412.252930,445.107910 
	C412.238251,448.456635 412.364716,451.125092 416.880524,450.237427 
	C418.162476,449.985413 419.192505,450.404175 419.190948,452.030853 
	C419.188934,454.123199 417.729248,454.009369 416.418060,453.741302 
	C412.953461,453.032959 412.137268,454.600037 412.296906,457.773132 
	C412.522675,462.260681 412.244354,466.771851 412.408173,471.264679 
	C412.590668,476.269531 413.978455,477.322723 418.910278,476.616425 
	C419.837677,476.483643 420.983978,475.638550 421.550812,476.856689 
	C422.242065,478.342407 420.853363,478.959747 419.828033,479.366699 
	C416.135223,480.832397 412.655975,481.024048 409.983856,476.813446 
z"/>
<path fill="#1A1A1A" opacity="1.000000" stroke="none" 
	d="
M290.454376,442.644409 
	C290.457947,444.074158 290.572998,445.087891 290.437897,446.067108 
	C290.004028,449.212769 291.042633,450.775970 294.459869,450.258606 
	C295.794098,450.056580 297.272369,450.088562 297.201721,452.105225 
	C297.128967,454.182434 295.545898,453.948456 294.295319,453.719116 
	C291.156891,453.143585 290.218231,454.352448 290.385925,457.447510 
	C290.637573,462.091492 290.313660,466.765442 290.531250,471.412781 
	C290.763702,476.377838 292.245972,477.417725 297.165283,476.530884 
	C298.103912,476.361633 299.193726,475.560120 299.738983,476.813690 
	C300.383789,478.296204 299.045349,478.763275 298.013489,479.315948 
	C292.729156,482.146088 287.549316,479.335815 287.071136,473.007233 
	C286.683655,467.878784 286.887939,462.702087 286.917969,457.547302 
	C286.930328,455.427338 287.080627,453.433380 283.964111,453.792664 
	C282.851990,453.920898 282.043243,453.368896 282.031006,452.096130 
	C282.022278,451.189087 282.353271,450.233704 283.329498,450.353424 
	C287.898468,450.913666 286.716003,447.574158 286.975983,445.175964 
	C287.118958,443.857361 286.917694,442.273834 287.580566,441.284912 
	C289.132996,438.968994 290.168976,439.776123 290.454376,442.644409 
z"/>
<path fill="#262626" opacity="1.000000" stroke="none" 
	d="
M498.520447,523.282715 
	C500.432861,523.429016 502.536407,521.135681 503.300140,523.304810 
	C504.163940,525.757874 501.295349,525.898926 499.774689,526.376099 
	C492.695129,528.597900 486.683899,525.416748 484.661407,518.284485 
	C483.124359,512.864014 483.215271,507.400269 485.916504,502.297546 
	C488.886353,496.687286 494.514648,494.736511 500.281464,497.176117 
	C501.435547,497.664368 503.274200,498.017853 502.910889,499.655029 
	C502.454132,501.713379 500.807892,500.475098 499.646393,500.220520 
	C495.834167,499.385040 492.174438,499.463928 489.894104,503.151306 
	C486.793793,508.164642 486.712524,513.593445 489.068237,518.882812 
	C490.753326,522.666443 494.023468,524.037598 498.520447,523.282715 
z"/>
<path fill="#262626" opacity="1.000000" stroke="none" 
	d="
M390.968384,500.488831 
	C385.388611,505.173798 383.908295,514.008362 387.484467,519.639587 
	C390.037506,523.659729 393.786957,524.041931 398.009674,523.033142 
	C399.187683,522.751709 400.852448,521.546814 401.509125,523.299316 
	C402.285889,525.372375 400.100525,525.569092 398.843597,526.053955 
	C391.359406,528.940918 384.536652,525.566040 382.574066,517.818298 
	C381.146973,512.184509 381.291321,506.574493 384.498566,501.434906 
	C387.655670,496.375671 393.502319,494.726135 398.842499,497.348724 
	C399.834656,497.835999 401.366669,498.227905 400.979523,499.678650 
	C400.422424,501.766388 398.859253,500.530792 397.708221,500.259186 
	C395.565308,499.753632 393.448883,499.513397 390.968384,500.488831 
z"/>
<path fill="#272727" opacity="1.000000" stroke="none" 
	d="
M622.677368,451.069916 
	C623.335022,451.949280 623.689758,452.588684 624.056763,453.506165 
	C617.697083,454.244965 610.763367,456.740265 611.034912,465.292816 
	C611.161499,469.280060 611.084473,473.275238 611.026917,477.265808 
	C611.011780,478.316864 611.389465,479.730347 609.493713,479.754700 
	C607.690186,479.777832 607.268250,478.771332 607.272583,477.215851 
	C607.295227,469.067413 607.280884,460.918884 607.285339,452.770386 
	C607.285889,451.773224 607.220032,450.613434 608.448975,450.324799 
	C610.149658,449.925415 610.220337,451.367462 610.518555,452.458832 
	C610.734253,453.248230 610.915771,454.046997 611.164917,455.053040 
	C614.916626,453.358032 617.287720,448.296753 622.677368,451.069916 
z"/>
<path fill="#272727" opacity="1.000000" stroke="none" 
	d="
M496.501282,479.134735 
	C493.082153,480.522644 493.037933,478.535980 493.047852,476.310211 
	C493.078827,469.347961 492.929749,462.382568 493.108002,455.424988 
	C493.151642,453.721680 491.735565,450.751770 494.600220,450.460297 
	C497.530121,450.162201 495.789307,453.694702 497.453583,455.227173 
	C499.708984,453.121643 501.999939,450.665833 505.397949,450.154266 
	C506.463776,449.993774 507.858734,449.458954 508.135284,451.242493 
	C508.308838,452.362030 508.561066,453.967896 507.105560,454.176392 
	C495.715942,455.808228 496.729279,464.267120 496.910858,472.336945 
	C496.959229,474.485687 496.819275,476.638702 496.501282,479.134735 
z"/>
<path fill="#131313" opacity="1.000000" stroke="none" 
	d="
M521.568481,517.676697 
	C521.862671,520.106079 521.890442,522.122375 523.111938,523.858704 
	C523.709900,524.708618 524.087280,525.777893 522.954712,526.442261 
	C521.902649,527.059448 521.039368,526.217468 520.365112,525.525208 
	C518.496399,523.606628 518.070435,521.106323 518.046021,518.596497 
	C517.937561,507.443939 517.913086,496.290497 517.885132,485.137299 
	C517.882019,483.878906 517.548279,482.294159 519.674133,482.357697 
	C521.747375,482.419617 521.414856,483.993591 521.421021,485.255920 
	C521.473083,495.910492 521.493408,506.565216 521.568481,517.676697 
z"/>
<path fill="#292929" opacity="1.000000" stroke="none" 
	d="
M552.061707,464.007263 
	C552.062866,459.851410 552.073181,456.191376 552.063110,452.531433 
	C552.059448,451.204651 552.450623,450.253510 553.987732,450.225067 
	C555.578369,450.195618 555.903381,451.220795 555.904663,452.511200 
	C555.912964,460.829224 555.916016,469.147278 555.926331,477.465302 
	C555.927979,478.781586 555.555786,479.751526 553.999817,479.757202 
	C552.443665,479.762848 552.057068,478.797882 552.058472,477.479340 
	C552.063110,473.153931 552.061829,468.828552 552.061707,464.007263 
z"/>
<path fill="#292929" opacity="1.000000" stroke="none" 
	d="
M511.841675,520.712097 
	C511.834076,522.330688 511.844635,523.493469 511.794830,524.653687 
	C511.741547,525.895203 510.956238,526.371765 509.817719,526.332520 
	C508.604248,526.290771 508.075195,525.578613 508.075775,524.402405 
	C508.079987,515.937378 508.082886,507.472351 508.079895,499.007324 
	C508.079407,497.650787 508.510468,496.752106 510.089783,496.886719 
	C512.081482,497.056427 511.802429,498.565430 511.807617,499.839203 
	C511.835449,506.644440 511.828369,513.449829 511.841675,520.712097 
z"/>
<path fill="#292929" opacity="1.000000" stroke="none" 
	d="
M511.665894,491.168640 
	C509.691559,492.768463 508.441071,492.293457 507.901398,490.175812 
	C507.614868,489.051514 508.341522,488.133667 509.357330,487.968811 
	C511.616150,487.602234 512.292908,488.836578 511.665894,491.168640 
z"/>
<path fill="#292929" opacity="1.000000" stroke="none" 
	d="
M552.133789,442.380157 
	C553.938721,440.506683 555.268982,440.826935 556.013489,442.896454 
	C556.365173,443.874237 556.000366,444.966614 554.860291,445.289276 
	C552.642517,445.917023 551.805908,444.826996 552.133789,442.380157 
z"/>
<path fill="#FDFDFD" opacity="1.000000" stroke="none" 
	d="
M429.672852,389.048157 
	C418.856445,389.573273 418.856201,389.573273 418.856476,379.470734 
	C418.857880,327.697052 418.921783,275.923126 418.748962,224.150040 
	C418.734314,219.761765 420.108459,219.042450 424.074799,219.107819 
	C449.538910,219.527451 462.778839,229.763550 469.099335,254.375641 
	C470.007904,257.913635 470.925995,261.488892 471.353973,265.104401 
	C475.071320,296.505280 476.552277,327.870789 467.416779,358.689758 
	C461.959961,377.098663 449.271088,387.152435 429.672852,389.048157 
z"/>
<path fill="#F5F5F5" opacity="1.000000" stroke="none" 
	d="
M345.106323,469.429199 
	C345.053284,472.291443 343.402435,473.793213 341.790649,475.172729 
	C337.859039,478.537811 333.594666,477.336121 332.190674,472.361725 
	C330.907867,467.816742 330.976593,463.152618 332.220734,458.577667 
	C333.430511,454.129150 336.619751,452.651642 340.955414,453.080048 
	C345.466309,453.525757 345.257294,456.753662 345.143127,460.031097 
	C345.039215,463.014435 345.116791,466.004059 345.106323,469.429199 
z"/>
<path fill="#F5F5F5" opacity="1.000000" stroke="none" 
	d="
M456.325073,463.953430 
	C456.505768,468.608185 456.712616,472.712921 452.545227,475.502197 
	C448.559052,478.170197 444.925232,477.349152 443.451813,472.868744 
	C441.857819,468.021790 442.078857,463.008026 443.496796,458.147064 
	C444.722015,453.946777 447.949432,452.681061 452.052917,453.097076 
	C456.483673,453.546265 456.577698,456.639130 456.336060,459.994293 
	C456.252869,461.149628 456.324402,462.316132 456.325073,463.953430 
z"/>
<path fill="#EBEBEB" opacity="1.000000" stroke="none" 
	d="
M357.589294,461.658875 
	C357.831604,459.390778 358.552948,457.765106 359.642151,456.237823 
	C361.336670,453.861969 363.463989,452.383057 366.397644,453.184296 
	C369.342377,453.988617 370.256653,456.571289 370.801819,459.272003 
	C371.098633,460.742249 370.985962,462.046356 369.042786,461.957886 
	C365.262207,461.785736 361.505402,463.041565 357.589294,461.658875 
z"/>
<path fill="#F5F5F5" opacity="1.000000" stroke="none" 
	d="
M423.386597,507.035095 
	C424.258606,511.268890 424.173370,515.047180 422.587341,518.692627 
	C421.167603,521.955933 418.672302,523.541687 415.100769,523.373840 
	C411.692749,523.213745 409.516235,521.313660 408.413177,518.252991 
	C407.269379,515.079224 406.992737,511.780823 407.607391,508.415649 
	C408.377106,504.201630 410.039795,500.603546 414.752930,499.967987 
	C419.641571,499.308777 421.995270,502.408783 423.386597,507.035095 
z"/>
<path fill="#F5F5F5" opacity="1.000000" stroke="none" 
	d="
M588.008301,453.770020 
	C593.923767,452.819946 596.603088,454.334137 598.202271,459.341400 
	C599.502136,463.411255 599.477234,467.515961 597.972717,471.538086 
	C596.680420,474.992767 594.189636,476.987518 590.425476,476.864716 
	C586.876831,476.748962 584.666870,474.699219 583.464294,471.426331 
	C581.050293,464.856506 582.696289,457.925598 588.008301,453.770020 
z"/>
<path fill="#F4F4F4" opacity="1.000000" stroke="none" 
	d="
M484.458160,469.109589 
	C483.462433,474.160675 480.882782,477.151031 475.908356,476.799316 
	C471.116119,476.460480 469.356079,472.896606 468.589050,468.669495 
	C467.858002,464.640625 468.040802,460.714050 470.202972,457.121826 
	C471.865906,454.359070 474.304077,452.752777 477.655518,453.204407 
	C480.749023,453.621307 482.713715,455.571350 483.743958,458.416199 
	C484.953430,461.756073 485.189240,465.208374 484.458160,469.109589 
z"/>
</svg>