<?xml version="1.0" standalone="no"?>
<!DOCTYPE svg PUBLIC "-//W3C//DTD SVG 20010904//EN"
 "http://www.w3.org/TR/2001/REC-SVG-20010904/DTD/svg10.dtd">
<svg version="1.0" xmlns="http://www.w3.org/2000/svg"
 width="900.000000pt" height="600.000000pt" viewBox="0 0 900.000000 600.000000"
 preserveAspectRatio="xMidYMid meet">

<g transform="translate(0.000000,600.000000) scale(0.100000,-0.100000)"
fill="#000000" stroke="none">
<path d="M2478 4828 l-3 -452 -105 -48 -105 -48 -3 -150 -3 -150 78 36 c92 42
121 54 134 54 5 0 9 -434 9 -1125 l0 -1125 35 0 35 0 0 1146 0 1145 58 25 c31
14 95 43 142 64 47 21 146 65 220 98 74 33 358 159 630 280 839 372 906 402
920 402 10 0 522 -224 900 -395 52 -23 356 -159 675 -300 319 -142 604 -269
633 -281 l52 -24 0 149 0 148 -157 71 c-87 38 -403 179 -703 312 -300 134
-732 326 -960 427 -228 102 -422 187 -431 190 -8 2 -451 -190 -985 -427 -533
-238 -975 -434 -981 -437 -10 -4 -13 86 -13 431 l0 436 -35 0 -35 0 -2 -452z"/>
<path d="M3155 4110 c-257 -42 -433 -272 -412 -539 15 -177 84 -350 279 -691
173 -304 219 -405 238 -524 14 -88 0 -144 -51 -195 -49 -51 -89 -71 -153 -78
-71 -7 -149 17 -230 71 l-66 44 0 -147 0 -147 38 -18 c117 -57 261 -79 377
-57 229 42 395 250 395 496 0 193 -65 360 -291 755 -61 107 -128 229 -149 270
-120 239 -110 421 28 482 65 29 194 22 276 -15 32 -15 60 -27 62 -27 2 0 4 61
4 135 l0 134 -78 25 c-89 28 -194 38 -267 26z"/>
<path d="M5875 4110 c-213 -33 -369 -184 -470 -455 -74 -199 -100 -384 -99
-715 0 -213 4 -276 22 -380 50 -293 128 -467 268 -601 162 -154 411 -183 629
-73 110 56 105 45 105 211 0 78 -2 143 -5 143 -2 0 -33 -20 -69 -45 -113 -79
-168 -100 -266 -100 -68 0 -93 5 -126 22 -174 93 -242 365 -231 923 6 280 15
375 48 505 77 301 297 388 549 216 33 -23 62 -41 65 -41 3 0 4 64 3 142 l-3
142 -70 37 c-70 38 -216 80 -271 78 -16 -1 -51 -5 -79 -9z"/>
<path d="M3865 4078 c-3 -7 -4 -510 -3 -1118 l3 -1105 270 0 c255 0 274 1 345
23 117 37 187 79 276 167 133 131 210 292 255 528 27 141 38 515 19 665 -56
456 -232 718 -547 811 -94 28 -229 40 -441 41 -129 0 -174 -3 -177 -12z m471
-267 c143 -27 249 -103 300 -215 69 -150 101 -411 91 -726 -11 -323 -53 -494
-153 -615 -67 -82 -195 -135 -326 -135 l-68 0 0 850 0 850 54 0 c29 0 75 -4
102 -9z"/>
<path d="M3440 1571 l0 -69 -45 6 c-88 9 -130 -50 -123 -174 3 -60 8 -77 27
-98 31 -33 89 -36 116 -6 23 26 35 25 35 -1 0 -12 5 -19 13 -17 9 4 13 58 15
216 2 207 2 212 -18 212 -18 0 -20 -6 -20 -69z m-16 -97 c13 -5 16 -23 16 -96
0 -81 -2 -91 -25 -113 -59 -60 -110 -14 -109 97 0 57 4 72 24 93 23 24 60 32
94 19z"/>
<path d="M4554 1625 c-3 -8 -4 -39 -2 -69 l3 -54 -47 5 c-86 10 -128 -42 -128
-160 0 -87 28 -131 85 -135 30 -2 46 3 62 18 28 25 33 25 33 0 0 -11 7 -20 15
-20 13 0 15 31 15 215 0 186 -2 215 -15 215 -9 0 -18 -7 -21 -15z m-20 -151
c13 -5 16 -24 16 -99 0 -89 -1 -95 -26 -114 -65 -51 -110 -9 -108 102 1 56 5
72 24 92 23 24 61 32 94 19z"/>
<path d="M2867 1603 c-4 -3 -7 -26 -7 -50 0 -39 -2 -43 -25 -43 -18 0 -25 -5
-25 -20 0 -15 7 -20 25 -20 25 0 25 0 25 -100 0 -110 11 -147 48 -157 28 -7
74 6 79 24 3 8 -8 10 -36 6 -37 -5 -41 -3 -51 22 -6 16 -9 69 -8 119 l3 91 33
-3 c27 -3 32 0 32 17 0 17 -6 21 -35 21 l-35 0 0 50 c0 46 -7 60 -23 43z"/>
<path d="M4087 1603 c-4 -3 -7 -26 -7 -50 0 -39 -2 -43 -25 -43 -18 0 -25 -5
-25 -20 0 -15 7 -20 25 -20 l25 0 0 -108 c0 -129 10 -152 69 -152 22 0 44 6
51 15 14 16 10 18 -37 15 -44 -2 -55 27 -51 144 l3 91 33 -3 c27 -3 32 0 32
17 0 17 -6 21 -35 21 l-35 0 0 50 c0 46 -7 60 -23 43z"/>
<path d="M5647 1604 c-4 -4 -7 -27 -7 -50 0 -37 -3 -43 -22 -46 -13 -2 -23
-10 -23 -18 0 -8 10 -16 23 -18 21 -3 22 -7 22 -102 0 -110 11 -147 48 -157
29 -7 74 7 79 24 3 8 -9 11 -39 10 l-43 -2 -3 116 -3 116 31 -5 c25 -4 30 -1
30 17 0 17 -6 21 -29 21 -28 0 -30 2 -33 47 -3 44 -15 62 -31 47z"/>
<path d="M5517 1594 c-14 -15 -6 -34 14 -34 14 0 19 5 17 17 -3 18 -20 27 -31
17z"/>
<path d="M2631 1493 c-11 -10 -24 -32 -27 -49 -8 -42 25 -77 94 -99 41 -13 53
-22 59 -42 5 -20 1 -31 -18 -46 -20 -16 -34 -18 -81 -13 -36 3 -58 2 -58 -4 0
-16 46 -30 94 -30 61 0 96 29 96 79 0 51 -15 67 -85 94 -46 18 -61 28 -63 46
-6 38 15 51 79 51 59 0 78 12 37 24 -45 12 -106 6 -127 -11z"/>
<path d="M3014 1495 c-4 -9 -4 -63 -2 -121 4 -85 9 -110 25 -132 27 -36 88
-42 120 -12 28 25 29 25 37 -2 4 -16 8 -20 16 -12 7 7 10 61 8 150 -3 116 -6
139 -18 139 -12 0 -16 -20 -18 -112 -3 -107 -4 -113 -29 -133 -14 -11 -36 -20
-48 -20 -40 0 -50 25 -55 148 -3 80 -9 117 -17 120 -7 2 -16 -4 -19 -13z"/>
<path d="M3572 1480 c-62 -62 -63 -181 -2 -242 23 -23 37 -28 75 -28 47 0 85
13 85 30 0 6 -18 7 -42 4 -58 -8 -95 8 -114 50 -28 57 -17 66 81 66 47 0 85 3
85 8 -1 33 -25 101 -42 120 -32 33 -88 30 -126 -8z m108 -22 c11 -12 20 -32
20 -44 0 -19 -7 -22 -67 -27 -38 -3 -69 -4 -71 -2 -6 6 19 56 38 75 26 26 54
25 80 -2z"/>
<path d="M3784 1497 c-2 -7 -3 -74 -2 -148 3 -111 6 -134 18 -134 12 0 16 20
18 106 2 100 4 109 29 133 14 14 36 26 48 26 40 0 50 -25 55 -149 4 -94 8
-116 20 -116 12 0 16 19 18 95 4 115 -2 150 -29 178 -25 28 -78 29 -112 2 -14
-11 -28 -20 -31 -20 -3 0 -6 9 -6 20 0 22 -18 27 -26 7z"/>
<path d="M4699 1495 c-76 -41 -80 -219 -6 -268 33 -21 95 -22 125 -1 35 24 55
74 55 134 0 60 -20 110 -55 134 -28 20 -84 20 -119 1z m108 -39 c26 -22 28
-30 28 -96 0 -66 -2 -74 -28 -96 -50 -42 -106 -24 -127 42 -25 76 16 174 74
174 14 0 38 -11 53 -24z"/>
<path d="M4924 1497 c-2 -7 -3 -74 -2 -148 3 -111 6 -134 18 -134 12 0 16 19
18 96 2 89 5 99 28 122 14 14 39 29 55 32 20 5 29 13 29 26 0 10 -4 19 -9 19
-21 0 -60 -20 -80 -41 l-21 -23 -6 32 c-7 33 -21 42 -30 19z"/>
<path d="M5110 1360 c0 -127 2 -150 15 -150 12 0 15 19 15 109 0 101 2 110 25
135 25 27 49 32 75 16 12 -7 16 -38 20 -132 4 -100 8 -123 20 -123 12 0 16 20
18 110 2 96 5 112 24 132 25 27 60 30 79 7 8 -10 14 -57 17 -135 4 -96 7 -119
19 -119 12 0 14 21 11 129 -3 110 -6 132 -22 150 -28 31 -80 28 -113 -6 -17
-16 -29 -21 -31 -14 -14 43 -85 56 -118 20 l-18 -20 -8 20 c-4 12 -12 21 -18
21 -6 0 -10 -54 -10 -150z"/>
<path d="M5515 1498 c-3 -8 -4 -75 -3 -149 3 -111 6 -134 18 -134 13 0 15 23
15 144 0 107 -3 145 -12 148 -7 3 -15 -2 -18 -9z"/>
<path d="M5839 1493 c-80 -49 -78 -227 2 -268 59 -31 124 -13 153 43 54 105 3
242 -91 242 -21 0 -50 -8 -64 -17z m108 -37 c26 -22 28 -30 28 -96 0 -66 -2
-74 -28 -96 -53 -46 -111 -21 -128 54 -17 78 22 162 77 162 13 0 36 -11 51
-24z"/>
<path d="M6064 1497 c-2 -7 -3 -73 -2 -147 3 -119 5 -135 21 -138 15 -3 17 6
17 87 0 111 10 135 66 158 30 12 44 24 44 37 0 27 -48 13 -82 -23 l-26 -29 -7
34 c-6 34 -21 45 -31 21z"/>
<path d="M6220 1508 c0 -21 92 -293 101 -298 9 -6 9 -16 0 -43 -16 -46 -34
-61 -67 -53 -21 6 -25 4 -22 -11 2 -14 13 -18 42 -18 54 0 67 22 119 205 62
215 63 223 41 218 -14 -2 -26 -33 -53 -131 -19 -70 -37 -127 -40 -127 -3 0
-19 44 -35 98 -38 130 -52 162 -70 162 -9 0 -16 -1 -16 -2z"/>
<path d="M5170 1001 c0 -183 7 -237 33 -253 19 -12 28 2 15 25 -9 15 -14 86
-16 220 -3 161 -6 197 -18 197 -12 0 -14 -33 -14 -189z"/>
<path d="M5074 1119 c-10 -17 13 -36 27 -22 12 12 4 33 -11 33 -5 0 -12 -5
-16 -11z"/>
<path d="M3884 1040 c-12 -5 -32 -23 -45 -42 -20 -28 -24 -45 -24 -111 0 -78
0 -79 37 -113 41 -37 71 -42 127 -23 30 11 39 39 10 30 -39 -12 -90 -4 -110
15 -45 45 -43 160 3 198 17 14 34 17 70 14 57 -6 67 14 17 31 -37 13 -56 13
-85 1z"/>
<path d="M4103 1036 c-54 -25 -75 -69 -71 -154 3 -71 5 -75 41 -108 49 -45 93
-46 141 -4 115 102 22 325 -111 266z m97 -51 c32 -34 38 -116 13 -164 -35 -68
-123 -56 -143 19 -33 121 58 222 130 145z"/>
<path d="M4670 1043 c-8 -3 -23 -13 -33 -22 -17 -14 -19 -14 -28 2 -23 40 -29
11 -29 -128 0 -122 2 -145 15 -145 12 0 15 18 15 104 0 96 2 105 25 130 16 17
34 26 54 26 47 0 61 -37 61 -160 0 -84 2 -100 16 -100 14 0 15 16 12 125 -3
109 -6 127 -23 144 -22 22 -62 33 -85 24z"/>
<path d="M4901 1037 c-50 -25 -66 -62 -66 -149 l0 -80 39 -35 c34 -32 43 -35
82 -30 45 5 78 23 69 37 -3 5 -20 4 -39 -1 -72 -20 -121 28 -120 118 1 38 7
63 21 81 18 24 27 27 77 27 63 -1 75 16 25 34 -41 14 -58 14 -88 -2z"/>
<path d="M4312 921 c3 -90 8 -125 21 -145 24 -36 61 -43 106 -20 20 10 39 20
44 22 4 2 7 -3 7 -12 0 -9 7 -16 15 -16 13 0 15 23 15 146 0 133 -1 145 -17
142 -16 -3 -18 -18 -21 -110 -3 -105 -3 -107 -33 -132 -32 -27 -46 -31 -65
-18 -26 17 -34 56 -34 156 0 101 -1 106 -21 106 -21 0 -21 -3 -17 -119z"/>
<path d="M5070 895 c0 -138 1 -145 20 -145 19 0 20 7 20 145 0 138 -1 145 -20
145 -19 0 -20 -7 -20 -145z"/>
</g>
</svg>
